<svg width="200" height="150" viewBox="0 0 800 600" fill="none" xmlns="http://www.w3.org/2000/svg" data-reactroot="">
<path fill-rule="evenodd" clip-rule="evenodd" d="M748.881 247.96H247.047C235.341 247.96 225.851 257.449 225.851 269.155V309.466C225.851 321.172 235.341 330.661 247.047 330.661H748.881C760.587 330.661 770.077 321.172 770.077 309.466V269.155C770.077 257.449 760.587 247.96 748.881 247.96ZM247.047 247.038C234.832 247.038 224.93 256.94 224.93 269.155V309.466C224.93 321.681 234.832 331.583 247.047 331.583H748.881C761.096 331.583 770.998 321.681 770.998 309.466V269.155C770.998 256.94 761.096 247.038 748.881 247.038H247.047Z" fill="#B0C1E1" stroke="#293449" stroke-width="1"></path>
<path fill-rule="evenodd" clip-rule="evenodd" d="M333.126 201.264L346.04 214.177C351.095 219.232 359.291 219.232 364.346 214.177C369.041 209.482 376.654 209.482 381.349 214.177C386.404 219.232 394.6 219.232 399.656 214.177C404.351 209.482 411.963 209.482 416.659 214.177C421.714 219.232 429.91 219.232 434.965 214.177C439.66 209.482 447.273 209.482 451.968 214.177C457.023 219.232 465.22 219.232 470.275 214.177C474.97 209.482 482.583 209.482 487.278 214.177C492.333 219.232 500.529 219.232 505.584 214.177C510.28 209.482 517.892 209.482 522.587 214.177C527.644 219.234 535.867 219.205 540.921 214.151C545.606 209.465 553.214 209.395 557.953 214.022L567.159 223.009L567.803 222.349L558.597 213.362C553.494 208.381 545.309 208.459 540.269 213.499C535.572 218.196 527.933 218.22 523.239 213.526C518.184 208.47 509.988 208.47 504.933 213.526C500.237 218.221 492.625 218.221 487.929 213.526C482.874 208.47 474.678 208.47 469.623 213.526C464.928 218.221 457.315 218.221 452.62 213.526C447.565 208.47 439.369 208.47 434.313 213.526C429.618 218.221 422.006 218.221 417.31 213.526C412.255 208.47 404.059 208.47 399.004 213.526C394.309 218.221 386.696 218.221 382.001 213.526C376.946 208.47 368.75 208.47 363.694 213.526C358.999 218.221 351.386 218.221 346.691 213.526L333.778 200.612L333.126 201.264Z" fill="#B0C1E1" stroke="#293449" stroke-width="1"></path>
<path fill-rule="evenodd" clip-rule="evenodd" d="M657.629 444.614L657.629 134.986C657.629 123.28 648.14 113.791 636.434 113.791L586.49 113.791C574.784 113.791 565.295 123.28 565.295 134.986L565.295 444.614C565.295 456.32 574.784 465.81 586.49 465.81L636.434 465.81C648.14 465.81 657.629 456.32 657.629 444.614ZM658.551 134.986C658.551 122.771 648.649 112.869 636.434 112.869L586.49 112.869C574.275 112.869 564.373 122.771 564.373 134.986L564.373 444.614C564.373 456.829 574.275 466.731 586.49 466.731L636.434 466.731C648.649 466.731 658.551 456.829 658.551 444.614L658.551 134.986Z" fill="#B0C1E1" stroke="#293449" stroke-width="1"></path>
<path fill-rule="evenodd" clip-rule="evenodd" d="M449.046 481.725H101.691C89.9853 481.725 80.4958 491.215 80.4958 502.921V525.3C80.4958 537.006 89.9853 546.496 101.691 546.496H449.046C460.752 546.496 470.241 537.006 470.241 525.3V502.921C470.241 491.215 460.752 481.725 449.046 481.725ZM101.691 480.804C89.4764 480.804 79.5742 490.706 79.5742 502.921V525.3C79.5742 537.515 89.4763 547.417 101.691 547.417H449.046C461.261 547.417 471.163 537.515 471.163 525.3V502.921C471.163 490.706 461.261 480.804 449.046 480.804H101.691Z" fill="#B0C1E1" stroke="#293449" stroke-width="1"></path>
<path fill-rule="evenodd" clip-rule="evenodd" d="M761.245 75.3274L748.331 88.2409C743.276 93.296 743.276 101.492 748.331 106.547C753.027 111.243 753.027 118.855 748.331 123.55C743.276 128.606 743.276 136.802 748.331 141.857C753.027 146.552 753.027 154.165 748.331 158.86C743.276 163.915 743.276 172.111 748.331 177.166C753.027 181.862 753.027 189.474 748.331 194.17C743.276 199.225 743.276 207.421 748.331 212.476C753.027 217.171 753.027 224.784 748.331 229.479C743.276 234.534 743.276 242.73 748.331 247.786C753.027 252.481 753.027 260.093 748.331 264.789C743.275 269.845 743.304 278.068 748.358 283.122C753.044 287.808 753.113 295.415 748.487 300.154L739.5 309.36L740.16 310.004L749.146 300.798C754.128 295.695 754.05 287.51 749.01 282.47C744.313 277.774 744.289 270.134 748.983 265.44C754.038 260.385 754.038 252.189 748.983 247.134C744.288 242.439 744.288 234.826 748.983 230.131C754.038 225.076 754.038 216.88 748.983 211.824C744.288 207.129 744.288 199.517 748.983 194.821C754.038 189.766 754.038 181.57 748.983 176.515C744.288 171.82 744.288 164.207 748.983 159.512C754.038 154.456 754.038 146.26 748.983 141.205C744.288 136.51 744.288 128.897 748.983 124.202C754.038 119.147 754.038 110.951 748.983 105.896C744.288 101.2 744.288 93.5878 748.983 88.8925L761.896 75.979L761.245 75.3274Z" fill="#B0C1E1" stroke="#293449" stroke-width="1"></path>
<path fill-rule="evenodd" clip-rule="evenodd" d="M371.101 379.874C362.131 398.958 347.072 416.874 321.075 421.107C299.294 424.653 269.088 428.824 243.82 424.02C230.907 421.564 217.391 416.44 207.029 405.943C196.24 395.013 190.87 380.301 190.87 362.839H228.653C228.653 372.199 231.301 376.748 233.918 379.4C236.962 382.483 242.24 385.259 250.879 386.902C268.716 390.293 292.648 387.454 315.003 383.815C324.11 382.332 330.893 376.597 336.907 363.802C343.231 350.348 346.92 332.713 350.863 312.859C351.028 312.024 351.195 311.182 351.363 310.334C354.868 292.629 358.902 272.252 366.567 257.146C370.77 248.863 376.892 240.379 386.26 234.81C396.082 228.97 407.285 227.623 418.912 229.902L411.642 266.98C407.54 266.175 406.101 266.97 405.569 267.287C404.582 267.873 402.638 269.558 400.261 274.243C395.132 284.35 391.964 299.866 387.922 320.218L387.863 320.514C384.149 339.218 379.715 361.547 371.101 379.874Z" fill="#2249B3" stroke="#293449" stroke-width="1"></path>
<path fill-rule="evenodd" clip-rule="evenodd" d="M276.57 388.257L282.662 425.765C287.661 425.457 292.606 425.001 297.412 424.457L293.163 386.902C287.537 387.54 281.966 388.019 276.57 388.257ZM350.059 316.888C349.108 321.629 348.16 326.231 347.174 330.667L383.274 342.361C384.19 338.414 385.03 334.498 385.821 330.667L350.059 316.888Z" fill="black" fill-opacity="0.32" stroke="#293449" stroke-width="1"></path>
<path d="M135.002 355.303C135.002 350.918 138.998 347.362 143.928 347.362H211.163C220.953 347.362 228.821 354.537 228.58 363.244H143.928C138.998 363.244 135.002 359.689 135.002 355.303Z" fill="#2249B3" stroke="#293449" stroke-width="1"></path>
<path d="M242.556 352.521C242.556 349.672 239.959 347.362 236.757 347.362H193.077C186.716 347.362 181.604 352.023 181.761 357.68H236.757C239.959 357.68 242.556 355.37 242.556 352.521Z" fill="#2249B3" stroke="#293449" stroke-width="1"></path>
<path d="M391.834 301.509L358.982 275.922L394.835 288.978L391.834 301.509Z" fill="black" fill-opacity="0.34" stroke="#293449" stroke-width="1"></path>
<path fill-rule="evenodd" clip-rule="evenodd" d="M405.678 275.305C402.962 277.553 399.128 282.583 394.776 292.185L346.934 270.498C352.578 258.048 360.439 244.565 372.178 234.846C385.102 224.144 401.623 219 420.331 222.668L410.224 274.215C408.54 273.884 407.828 274.067 407.653 274.114C407.436 274.172 406.804 274.372 405.678 275.305Z" fill="#FF7373" stroke="#293449" stroke-width="1"></path>
<path d="M366.068 250.293C369.12 250.113 369.827 249.755 371.789 245.724C372.192 249.495 372.016 249.85 375.365 252.971C371.915 252.789 369.88 254.546 369.21 256.24C369.333 253.394 368.679 251.73 366.068 250.293Z" fill="#B0C1E1" stroke="#293449" stroke-width="1"></path>
<circle cx="378.583" cy="271.114" r="1.74515" fill="#B0C1E1" stroke="#293449" stroke-width="1"></circle>
<circle cx="385.935" cy="237.318" r="1.74515" fill="#B0C1E1" stroke="#293449" stroke-width="1"></circle>
<ellipse cx="400.899" cy="547.417" rx="163.474" ry="2.35068" fill="#002B6C" fill-opacity="0.1"></ellipse>
<path d="M430.888 356.812L527.374 373.748C520.053 405.559 487.968 425.097 456.346 417L432.192 410.815L430.888 356.812Z" fill="#2249B3" stroke="#293449" stroke-width="1"></path>
<rect x="686.752" y="95.0565" width="8.48315" height="24.1008" rx="2.76463" fill="#FF7373" stroke="#293449" stroke-width="1"></rect>
<rect x="550.254" y="59.3146" width="8.48315" height="24.1008" rx="2.76463" transform="rotate(-90 550.254 59.3146)" fill="#FF7373" stroke="#293449" stroke-width="1"></rect>
<rect x="686.752" y="123.525" width="8.48315" height="24.1008" rx="2.76463" fill="#FF7373" stroke="#293449" stroke-width="1"></rect>
<rect x="693" y="52.3818" width="239.402" height="168.159" rx="22.117" transform="rotate(90 693 52.3818)" fill="#2249B3" stroke="#293449" stroke-width="1"></rect>
<path d="M529.836 178.998V225.926H604.52L529.836 178.998Z" fill="#FF7373" stroke="#293449" stroke-width="1"></path>
<path d="M606.469 141.006L567.629 225.925H642.313L606.469 141.006Z" fill="#FF7373" stroke="#293449" stroke-width="1"></path>
<path d="M539.074 208.09L614.773 225.926L599.985 189.436L560.774 162.407L539.074 208.09Z" fill="#FF7373" stroke="#293449" stroke-width="1"></path>
<path d="M529.957 202.838H560.165L557.47 192.601L546.303 175.273L529.957 202.838Z" fill="#FF7373" stroke="#293449" stroke-width="1"></path>
<path d="M602.158 180.426L632.16 187.606L629.671 170.189L618.504 152.861L602.158 180.426Z" fill="#FF7373" stroke="#293449" stroke-width="1"></path>
<path d="M571.115 197.799L601.117 204.979L598.628 187.562L587.461 170.234L571.115 197.799Z" fill="#FF7373" stroke="#293449" stroke-width="1"></path>
<path d="M643.811 141.006L604.971 225.925H679.655L643.811 141.006Z" fill="#FF7373" stroke="#293449" stroke-width="1"></path>
<path d="M686.752 147.91L612.068 225.927H686.752V147.91Z" fill="#FF7373" stroke="#293449" stroke-width="1"></path>
<circle cx="555.105" cy="98.6644" r="15.0156" fill="#FF7373" stroke="#293449" stroke-width="1"></circle>
<rect x="689.54" y="55.8417" width="232.483" height="161.239" rx="18.657" transform="rotate(90 689.54 55.8417)" stroke="#293449" stroke-width="1"></rect>
<path d="M529.43 222.838H686.751V269.114C686.751 278.017 679.534 285.234 670.631 285.234H545.55C536.647 285.234 529.43 278.017 529.43 269.114V222.838Z" fill="#2249B3" stroke="#293449" stroke-width="1"></path>
<rect x="546.742" y="236.97" width="126.592" height="29.3168" rx="5" fill="white" fill-opacity="0.8" stroke="#293449" stroke-width="1"></rect>
<rect x="554.562" y="242.259" width="18.7379" height="18.7379" rx="4" fill="#B0C1E1" stroke="#293449" stroke-width="1"></rect>
<rect x="585.301" y="242.259" width="18.7379" height="18.7379" rx="4" fill="#B0C1E1" stroke="#293449" stroke-width="1"></rect>
<rect x="616.039" y="242.259" width="18.7379" height="18.7379" rx="4" fill="#B0C1E1" stroke="#293449" stroke-width="1"></rect>
<rect x="646.775" y="242.259" width="18.7379" height="18.7379" rx="4" fill="#B0C1E1" stroke="#293449" stroke-width="1"></rect>
<rect x="554.562" y="83.6488" width="18.7379" height="18.7379" rx="4" fill="black" fill-opacity="0.1" stroke="#293449" stroke-width="1"></rect>
<rect x="585.301" y="83.6488" width="18.7379" height="18.7379" rx="4" fill="black" fill-opacity="0.1" stroke="#293449" stroke-width="1"></rect>
<rect x="616.039" y="83.6488" width="18.7379" height="18.7379" rx="4" fill="black" fill-opacity="0.1" stroke="#293449" stroke-width="1"></rect>
<rect x="646.775" y="83.6488" width="18.7379" height="18.7379" rx="4" fill="black" fill-opacity="0.1" stroke="#293449" stroke-width="1"></rect>
<rect x="554.562" y="117.387" width="18.7379" height="18.7379" rx="4" fill="black" fill-opacity="0.1" stroke="#293449" stroke-width="1"></rect>
<rect x="585.301" y="117.387" width="18.7379" height="18.7379" rx="4" fill="black" fill-opacity="0.1" stroke="#293449" stroke-width="1"></rect>
<rect x="616.039" y="117.387" width="18.7379" height="18.7379" rx="4" fill="black" fill-opacity="0.1" stroke="#293449" stroke-width="1"></rect>
<rect x="646.775" y="117.387" width="18.7379" height="18.7379" rx="4" fill="black" fill-opacity="0.1" stroke="#293449" stroke-width="1"></rect>
<rect x="554.562" y="151.124" width="18.7379" height="18.7379" rx="4" fill="black" fill-opacity="0.1" stroke="#293449" stroke-width="1"></rect>
<rect x="585.301" y="151.124" width="18.7379" height="18.7379" rx="4" fill="black" fill-opacity="0.1" stroke="#293449" stroke-width="1"></rect>
<rect x="616.039" y="151.124" width="18.7379" height="18.7379" rx="4" fill="black" fill-opacity="0.1" stroke="#293449" stroke-width="1"></rect>
<rect x="646.775" y="151.124" width="18.7379" height="18.7379" rx="4" fill="black" fill-opacity="0.1" stroke="#293449" stroke-width="1"></rect>
<path fill-rule="evenodd" clip-rule="evenodd" d="M346.313 404.469C348.594 416.343 350.847 430.379 350.847 444.311C350.847 460.852 337.438 474.261 320.897 474.261C304.356 474.261 290.947 460.852 290.947 444.311C290.947 436.232 289.592 426.718 287.489 415.768C286.828 412.33 286.004 408.351 285.145 404.207C283.641 396.947 282.032 389.178 281.014 382.917C279.55 373.917 277.387 358.645 282.176 345.103C285.089 336.862 290.951 328.094 301.242 322.625C310.841 317.524 320.755 317.202 328.446 318.118C351.932 320.914 376.28 333.799 394.78 345.589C414.186 357.957 431.536 372.004 441.935 381.491L401.564 425.743C393.376 418.273 378.738 406.397 362.586 396.103C355.321 391.473 348.469 387.633 342.271 384.663C342.607 386.295 342.958 387.972 343.324 389.72C344.231 394.057 345.231 398.834 346.313 404.469ZM321.314 377.593C321.313 377.592 321.33 377.594 321.363 377.598C321.331 377.595 321.314 377.593 321.314 377.593Z" fill="#2249B3" stroke="#293449" stroke-width="1"></path>
<path d="M400.713 350.149L527.375 373.748C520.084 405.432 487.934 424.72 456.547 416.241L405.21 402.372L400.713 350.149Z" fill="#2249B3" stroke="#293449" stroke-width="1"></path>
<path d="M446.73 361.339L527.374 373.748C520.083 405.432 487.933 424.721 456.546 416.241L405.209 402.373L446.73 361.339Z" fill="white" fill-opacity="0.17" stroke="#293449" stroke-width="1"></path>
<path d="M321.397 454.611C320.307 451.341 311.53 451.349 307.277 451.762C307.277 457.831 308.367 470.49 312.727 472.571C318.177 475.172 322.884 474.677 334.403 471.085C343.619 468.211 348.895 455.519 350.382 449.532C346.088 455.436 335.915 467.517 329.573 468.607C321.645 469.97 322.76 458.698 321.397 454.611Z" fill="black" fill-opacity="0.34" stroke="#293449" stroke-width="1"></path>
<path fill-rule="evenodd" clip-rule="evenodd" d="M527.658 329.558C538.612 341.952 537.444 360.88 525.05 371.834L474.269 416.714L525.693 420.812C542.182 422.126 554.484 436.558 553.17 453.046C551.856 469.535 537.424 481.837 520.936 480.523L401.384 470.997C374.232 468.833 362.982 435.129 383.392 417.091L485.382 326.951C497.776 315.997 516.704 317.164 527.658 329.558Z" fill="#2249B3" stroke="#293449" stroke-width="1"></path>
<path fill-rule="evenodd" clip-rule="evenodd" d="M527.656 329.558C538.61 341.953 537.442 360.88 525.048 371.834L474.267 416.714L525.692 420.812C542.18 422.126 554.482 436.558 553.168 453.047C551.854 469.535 537.422 481.837 520.934 480.523L401.382 470.997C374.23 468.834 362.98 435.129 383.39 417.091L485.38 326.951C497.774 315.997 516.702 317.164 527.656 329.558Z" fill="white" fill-opacity="0.17" stroke="#293449" stroke-width="1"></path>
<path d="M402.615 460.56C384.815 457.896 375.634 436.942 376.154 426.362C367.95 443.448 376.018 457.089 384.184 464.132C391.107 470.103 400.227 471.011 405.998 471.334L463.476 475.835L498.516 478.605L515.835 474.788C485.512 471.155 420.416 463.224 402.615 460.56Z" fill="black" fill-opacity="0.43" stroke="#293449" stroke-width="1"></path>
<path d="M513.891 453.771C511.118 451.881 504.031 453.327 501.615 455.271L517.279 478.64C520.43 479.795 524.674 482.174 532.867 479.401C543.108 475.935 548.7 466.465 548.7 466.465C548.7 466.465 534.754 476.579 526.302 473.802C517.346 470.859 517.357 456.134 513.891 453.771Z" fill="black" fill-opacity="0.43" stroke="#293449" stroke-width="1"></path>
<path d="M523.479 385.267L433.875 358.612C439.111 358.612 525.501 376.581 525.858 378.485C526.144 380.008 524.391 383.641 523.479 385.267Z" fill="black" fill-opacity="0.43" stroke="#293449" stroke-width="1"></path>
<path d="M469.496 412.233L488.865 415.787L483.257 417.453L488.865 417.849L471.272 423.428L475.182 419.518L457.234 417.919L473.938 415.787L469.496 412.233Z" fill="black" fill-opacity="0.43" stroke="#293449" stroke-width="1"></path>
<path d="M387.275 413.605L433.443 374.051V373.264L391.833 396.198C378.194 389.348 349.663 381.273 343.263 384.474C360.911 394.123 372.036 401.829 387.275 413.605Z" fill="black" fill-opacity="0.34" stroke="#293449" stroke-width="1"></path>
<path d="M395.198 221.651C404.05 210.74 458.266 218.404 497.711 225.397C532.043 231.483 541.756 249.703 538.585 276.795C537.197 288.654 540.357 369.21 530.893 380.702L400.678 350.827C387.885 287.341 385.023 234.193 395.198 221.651Z" fill="#3F3F3F" stroke="#293449" stroke-width="1"></path>
<path fill-rule="evenodd" clip-rule="evenodd" d="M487.173 264.343C485.696 249.913 508.387 233.973 508.387 233.973L532.944 285.62C532.944 285.62 533.593 331.351 537.856 335.91L537.131 346.775C530.999 340.217 519.961 330.641 515.494 322.309L507.465 327.45C496.311 309.913 489.663 288.683 487.173 264.343Z" fill="black" fill-opacity="0.34" stroke="#293449" stroke-width="1"></path>
<path d="M410.001 243.437C406.327 246.584 405.778 247.711 407.162 254.667C403.049 250.301 402.93 249.685 395.725 248.955C400.247 245.885 401.129 241.725 400.354 238.95C402.921 242.653 405.336 244.125 410.001 243.437Z" fill="#FF7373" stroke="#293449" stroke-width="1"></path>
<path d="M455.926 318.65C451.575 316.536 450.322 316.482 444.496 320.526C446.858 315.012 447.375 314.658 445.171 307.759C449.79 310.681 453.957 309.831 456.192 308.013C453.821 311.844 453.434 314.646 455.926 318.65Z" fill="#FF7373" stroke="#293449" stroke-width="1"></path>
<path d="M472.368 255.525C474.785 252.918 475.091 252.049 473.495 247.087C476.866 249.928 477.004 250.368 482.326 250.294C479.283 252.916 478.989 256.028 479.789 257.988C477.603 255.501 475.716 254.63 472.368 255.525Z" fill="#FF7373" stroke="#293449" stroke-width="1"></path>
<path d="M504.923 352.591C507.34 349.984 507.646 349.115 506.05 344.154C509.421 346.995 509.559 347.434 514.881 347.361C511.838 349.983 511.544 353.094 512.344 355.055C510.158 352.568 508.271 351.696 504.923 352.591Z" fill="#FF7373" stroke="#293449" stroke-width="1"></path>
<path d="M409.226 335.455C412.775 335.246 413.597 334.83 415.877 330.143C416.346 334.527 416.141 334.94 420.035 338.569C416.024 338.357 413.659 340.4 412.88 342.369C413.022 339.061 412.262 337.126 409.226 335.455Z" fill="#FF7373" stroke="#293449" stroke-width="1"></path>
<path d="M415.314 282.558C418.366 282.377 419.073 282.02 421.035 277.989C421.438 281.759 421.262 282.114 424.611 285.236C421.161 285.053 419.126 286.811 418.456 288.505C418.579 285.659 417.925 283.995 415.314 282.558Z" fill="#FF7373" stroke="#293449" stroke-width="1"></path>
<path d="M468.064 277.847C471.116 277.667 471.823 277.309 473.785 273.278C474.188 277.048 474.012 277.403 477.361 280.525C473.911 280.342 471.876 282.1 471.206 283.794C471.329 280.948 470.675 279.284 468.064 277.847Z" fill="#FF7373" stroke="#293449" stroke-width="1"></path>
<path d="M435.347 255.986C437.253 257.482 437.86 257.641 441.14 256.28C439.399 258.728 439.109 258.847 439.456 262.457C437.505 260.537 435.376 260.511 434.089 261.164C435.656 259.54 436.142 258.21 435.347 255.986Z" fill="#FF7373" stroke="#293449" stroke-width="1"></path>
<path d="M475.244 307.675C477.149 309.171 477.756 309.33 481.037 307.969C479.296 310.417 479.005 310.536 479.352 314.146C477.402 312.226 475.272 312.2 473.985 312.853C475.552 311.229 476.039 309.899 475.244 307.675Z" fill="#FF7373" stroke="#293449" stroke-width="1"></path>
<path d="M466.105 347.911C469.157 347.73 469.864 347.373 471.826 343.341C472.229 347.112 472.053 347.467 475.402 350.588C471.952 350.406 469.918 352.163 469.247 353.857C469.37 351.012 468.716 349.347 466.105 347.911Z" fill="#FF7373" stroke="#293449" stroke-width="1"></path>
<circle cx="426.085" cy="228" r="1.74515" fill="#FF7373" stroke="#293449" stroke-width="1"></circle>
<circle cx="403.228" cy="228.358" r="1.74515" fill="#FF7373" stroke="#293449" stroke-width="1"></circle>
<circle cx="445.601" cy="274.605" r="1.74515" fill="#FF7373" stroke="#293449" stroke-width="1"></circle>
<circle cx="459.382" cy="298.972" r="1.74515" fill="#FF7373" stroke="#293449" stroke-width="1"></circle>
<circle cx="487.003" cy="229.745" r="1.74515" fill="#FF7373" stroke="#293449" stroke-width="1"></circle>
<circle cx="490.493" cy="324.597" r="1.74515" fill="#FF7373" stroke="#293449" stroke-width="1"></circle>
<circle cx="438.487" cy="347.647" r="1.74515" fill="#FF7373" stroke="#293449" stroke-width="1"></circle>
<circle cx="460.825" cy="330.651" r="1.74515" fill="#FF7373" stroke="#293449" stroke-width="1"></circle>
<circle cx="399.737" cy="285.23" r="1.74515" fill="#FF7373" stroke="#293449" stroke-width="1"></circle>
<circle cx="421.749" cy="311.427" r="1.74515" fill="#FF7373" stroke="#293449" stroke-width="1"></circle>
<circle cx="515.833" cy="366.383" r="1.74515" fill="#FF7373" stroke="#293449" stroke-width="1"></circle>
<circle cx="488.747" cy="347.723" r="1.74515" fill="#FF7373" stroke="#293449" stroke-width="1"></circle>
<path fill-rule="evenodd" clip-rule="evenodd" d="M561.514 517.191L238.486 517.192C236.196 517.192 234.339 515.335 234.339 513.045C234.339 510.755 236.196 508.898 238.486 508.898L561.514 508.897C563.804 508.897 565.661 510.754 565.661 513.044C565.661 515.335 563.804 517.191 561.514 517.191Z" fill="#B0C1E1" stroke="#293449" stroke-width="1"></path>
<path d="M311.609 530.565C311.609 536.34 306.698 541.022 300.64 541.022C294.583 541.022 289.672 536.34 289.672 530.565C289.672 524.79 294.583 520.108 300.64 520.108C306.698 520.108 311.609 524.79 311.609 530.565Z" fill="#B0C1E1" stroke="#293449" stroke-width="1"></path>
<path fill-rule="evenodd" clip-rule="evenodd" d="M297.552 537.624C303.609 537.624 308.52 532.942 308.52 527.167C308.52 525.361 308.04 523.662 307.195 522.18C309.874 524.086 311.608 527.133 311.608 530.565C311.608 536.34 306.698 541.022 300.64 541.022C296.477 541.022 292.855 538.81 290.997 535.552C292.826 536.853 295.094 537.624 297.552 537.624Z" fill="black" fill-opacity="0.38" stroke="#293449" stroke-width="1"></path>
<path d="M510.329 530.565C510.329 536.34 505.419 541.022 499.361 541.022C493.303 541.022 488.393 536.34 488.393 530.565C488.393 524.79 493.303 520.109 499.361 520.109C505.419 520.109 510.329 524.79 510.329 530.565Z" fill="#B0C1E1" stroke="#293449" stroke-width="1"></path>
<path fill-rule="evenodd" clip-rule="evenodd" d="M496.273 537.624C502.331 537.624 507.242 532.942 507.242 527.167C507.242 525.361 506.761 523.662 505.916 522.18C508.595 524.086 510.33 527.132 510.33 530.565C510.33 536.34 505.419 541.022 499.362 541.022C495.198 541.022 491.577 538.81 489.719 535.552C491.547 536.853 493.816 537.624 496.273 537.624Z" fill="black" fill-opacity="0.38" stroke="#293449" stroke-width="1"></path>
<path fill-rule="evenodd" clip-rule="evenodd" d="M517.974 249.097C507.688 250.842 500.763 260.595 502.507 270.882C508.511 306.281 523.199 333.112 546.143 350.166C568.921 367.097 597.243 372.459 626.834 370.228C646.897 368.716 669.522 359.399 686.06 341.975C703.197 323.92 713.075 297.855 707.588 265.506L670.337 271.823C673.82 292.362 667.665 306.472 658.655 315.965C649.046 326.089 635.412 331.691 623.994 332.552C600.459 334.326 582.055 329.782 568.682 319.842C555.475 310.025 544.585 293.02 539.759 264.564C538.014 254.278 528.261 247.353 517.974 249.097Z" fill="#2249B3" stroke="#293449" stroke-width="1"></path>
<path d="M549.764 296.837L519.809 320.818L516.822 315.391L549.007 294.86L549.764 296.837Z" fill="black" fill-opacity="0.34" stroke="#293449" stroke-width="1"></path>
<path fill-rule="evenodd" clip-rule="evenodd" d="M510.269 227.974C495.839 229.451 487.578 243.914 489.055 258.344C491.546 282.684 498.193 303.914 509.347 321.451L558.819 289.779C552.964 280.574 548.052 266.214 541.081 251.147C534.465 236.849 524.699 226.497 510.269 227.974Z" fill="#FF7373" stroke="#293449" stroke-width="1"></path>
<path d="M514.389 239.632C517.327 238.786 517.938 238.282 518.967 233.918C520.188 237.508 520.094 237.893 524.047 240.203C520.641 240.783 519.043 242.944 518.761 244.743C518.255 241.941 517.252 240.46 514.389 239.632Z" fill="#B0C1E1" stroke="#293449" stroke-width="1"></path>
<path d="M520.909 273.932C521.519 270.935 521.355 270.16 517.963 267.229C521.71 267.808 522.008 268.069 525.885 265.634C524.823 268.922 525.999 271.339 527.463 272.422C524.745 271.572 522.968 271.777 520.909 273.932Z" fill="#B0C1E1" stroke="#293449" stroke-width="1"></path>
<path d="M508.668 295.305C511.606 294.458 512.218 293.954 513.246 289.59C514.467 293.18 514.374 293.565 518.326 295.875C514.92 296.455 513.322 298.616 513.04 300.416C512.535 297.613 511.532 296.133 508.668 295.305Z" fill="#B0C1E1" stroke="#293449" stroke-width="1"></path>
<circle cx="502.055" cy="252.08" r="1.74515" transform="rotate(-12.6886 502.055 252.08)" fill="#B0C1E1" stroke="#293449" stroke-width="1"></circle>
<circle cx="507.877" cy="277.938" r="1.74515" transform="rotate(-12.6886 507.877 277.938)" fill="#B0C1E1" stroke="#293449" stroke-width="1"></circle>
<circle cx="530.623" cy="256.658" r="1.74515" transform="rotate(-12.6886 530.623 256.658)" fill="#B0C1E1" stroke="#293449" stroke-width="1"></circle>
<circle cx="540.51" cy="284.675" r="1.74515" transform="rotate(-12.6886 540.51 284.675)" fill="#B0C1E1" stroke="#293449" stroke-width="1"></circle>
<path d="M653.307 320.155C646.136 320.155 640.303 313.984 640.303 306.399V179.569C640.303 171.984 646.136 165.814 653.307 165.814H707.464C714.635 165.814 720.468 171.984 720.468 179.569V306.399C720.468 313.984 714.635 320.155 707.464 320.155H653.307Z" fill="#3F3F3F" stroke="#293449" stroke-width="1"></path>
<path d="M707.464 316.527H653.307C648.119 316.527 643.914 312.079 643.914 306.591V179.762C643.914 174.274 648.119 169.826 653.307 169.826H707.464C712.652 169.826 716.857 174.274 716.857 179.762V306.591C716.857 312.079 712.652 316.527 707.464 316.527Z" fill="#E6E6E6" stroke="#293449" stroke-width="1"></path>
<path d="M708.55 316.527H652.222C648.597 316.527 645.658 313.419 645.658 309.584V176.768C645.658 172.934 648.597 169.826 652.222 169.826H708.55C712.175 169.826 715.113 172.934 715.113 176.768V309.584C715.113 313.419 712.175 316.527 708.55 316.527Z" fill="white" stroke="#293449" stroke-width="1"></path>
<path d="M688.128 311.93H672.642C672.124 311.93 671.703 311.485 671.703 310.936C671.703 310.388 672.124 309.943 672.642 309.943H688.128C688.646 309.943 689.067 310.388 689.067 310.936C689.067 311.485 688.646 311.93 688.128 311.93Z" fill="#E6E6E6" stroke="#293449" stroke-width="1"></path>
<path d="M698.327 180.72H662.443C659.996 180.72 658.012 178.621 658.012 176.032V169.826H702.758V176.032C702.758 178.621 700.774 180.72 698.327 180.72Z" fill="#FF7373" stroke="#293449" stroke-width="1"></path>
<path d="M690.864 175.958C691.466 175.958 691.954 175.443 691.954 174.806C691.954 174.17 691.466 173.654 690.864 173.654C690.263 173.654 689.775 174.17 689.775 174.806C689.775 175.443 690.263 175.958 690.864 175.958Z" fill="#3F3F3F" stroke="#293449" stroke-width="1"></path>
<path d="M697.226 175.958C697.827 175.958 698.315 175.443 698.315 174.806C698.315 174.17 697.827 173.654 697.226 173.654C696.624 173.654 696.137 174.17 696.137 174.806C696.137 175.443 696.624 175.958 697.226 175.958Z" fill="#3F3F3F" stroke="#293449" stroke-width="1"></path>
<path d="M705.993 191.968H654.777C652.787 191.968 651.174 190.261 651.174 188.156V187.587C651.174 185.482 652.787 183.776 654.777 183.776H705.993C707.983 183.776 709.596 185.482 709.596 187.587V188.156C709.596 190.261 707.983 191.968 705.993 191.968Z" fill="#FF7373" stroke="#293449" stroke-width="1"></path>
<path d="M662.529 294.111H653.34V303.831H662.529V294.111Z" fill="#B0C1E1" stroke="#293449" stroke-width="1"></path>
<path d="M677.496 294.111H668.307V303.831H677.496V294.111Z" fill="#B0C1E1" stroke="#293449" stroke-width="1"></path>
<path d="M692.462 294.111H683.273V303.831H692.462V294.111Z" fill="#B0C1E1" stroke="#293449" stroke-width="1"></path>
<path d="M707.429 294.111H698.24V303.831H707.429V294.111Z" fill="#B0C1E1" stroke="#293449" stroke-width="1"></path>
<path d="M657.489 247.039H654.047C652.46 247.039 651.174 245.678 651.174 243.999V240.358C651.174 238.68 652.46 237.319 654.047 237.319H657.489C659.076 237.319 660.363 238.68 660.363 240.358V243.999C660.363 245.678 659.076 247.039 657.489 247.039Z" fill="#B0C1E1" stroke="#293449" stroke-width="1"></path>
<path d="M706.722 247.038H703.28C701.693 247.038 700.406 245.677 700.406 243.998V240.357C700.406 238.679 701.693 237.318 703.28 237.318H706.722C708.309 237.318 709.595 238.679 709.595 240.357V243.998C709.595 245.677 708.309 247.038 706.722 247.038Z" fill="#B0C1E1" stroke="#293449" stroke-width="1"></path>
<path d="M694.646 247.038H691.204C689.617 247.038 688.33 245.677 688.33 243.998V240.357C688.33 238.679 689.617 237.318 691.204 237.318H694.646C696.233 237.318 697.519 238.679 697.519 240.357V243.998C697.519 245.677 696.233 247.038 694.646 247.038Z" fill="#B0C1E1" stroke="#293449" stroke-width="1"></path>
<path d="M657.489 290.091H654.047C652.46 290.091 651.174 288.73 651.174 287.051V283.41C651.174 281.731 652.46 280.37 654.047 280.37H657.489C659.076 280.37 660.363 281.731 660.363 283.41V287.051C660.363 288.73 659.076 290.091 657.489 290.091Z" fill="#B0C1E1" stroke="#293449" stroke-width="1"></path>
<path d="M706.722 290.09H703.28C701.693 290.09 700.406 288.729 700.406 287.051V283.41C700.406 281.731 701.693 280.37 703.28 280.37H706.722C708.309 280.37 709.595 281.731 709.595 283.41V287.051C709.595 288.729 708.309 290.09 706.722 290.09Z" fill="#B0C1E1" stroke="#293449" stroke-width="1"></path>
<path d="M694.646 290.09H691.204C689.617 290.09 688.33 288.729 688.33 287.051V283.41C688.33 281.731 689.617 280.37 691.204 280.37H694.646C696.233 280.37 697.519 281.731 697.519 283.41V287.051C697.519 288.729 696.233 290.09 694.646 290.09Z" fill="#B0C1E1" stroke="#293449" stroke-width="1"></path>
<path d="M709.596 276.35H651.174V255.271C651.174 252.95 652.952 251.069 655.146 251.069H705.624C707.818 251.069 709.596 252.95 709.596 255.271V276.35Z" fill="#B0C1E1" stroke="#293449" stroke-width="1"></path>
<path d="M705.624 234.262H655.146C652.952 234.262 651.174 232.381 651.174 230.06V202.282C651.174 199.961 652.952 198.08 655.146 198.08H705.624C707.818 198.08 709.596 199.961 709.596 202.282V230.06C709.596 232.381 707.818 234.262 705.624 234.262Z" fill="#B0C1E1" stroke="#293449" stroke-width="1"></path>
<rect x="625.059" y="246.159" width="43.7553" height="23.287" rx="11.6435" transform="rotate(-17.448 625.059 246.159)" fill="#2249B3" stroke="#293449" stroke-width="1"></rect>
<rect x="701.248" y="266.979" width="33.8718" height="18.3902" rx="9.19508" fill="#2249B3" stroke="#293449" stroke-width="1"></rect>
<path d="M690.865 257.784C690.865 252.706 694.982 248.589 700.06 248.589H725.924C731.002 248.589 735.119 252.706 735.119 257.784C735.119 262.862 731.002 266.979 725.924 266.979H700.06C694.982 266.979 690.865 262.862 690.865 257.784Z" fill="#2249B3" stroke="#293449" stroke-width="1"></path>
<path d="M690.865 239.394C690.865 234.316 694.982 230.199 700.06 230.199H725.924C731.002 230.199 735.119 234.316 735.119 239.394C735.119 244.473 731.002 248.589 725.924 248.589H700.06C694.982 248.589 690.865 244.473 690.865 239.394Z" fill="#2249B3" stroke="#293449" stroke-width="1"></path>
<path d="M690.865 221.003C690.865 215.925 694.982 211.808 700.06 211.808H725.924C731.002 211.808 735.119 215.925 735.119 221.003C735.119 226.082 731.002 230.198 725.924 230.198H700.06C694.982 230.198 690.865 226.082 690.865 221.003Z" fill="#2249B3" stroke="#293449" stroke-width="1"></path>
<path d="M419.19 151.063C417.552 147.162 421.693 140.207 423.969 137.216C426.894 138.679 432.745 141.702 432.745 142.092V151.063C428.909 152.688 420.829 154.963 419.19 151.063Z" fill="#3B19FD" stroke="#293449" stroke-width="1"></path>
<path d="M442.789 178.201L468.184 177.869L468.876 230.763C468.876 230.763 466.648 238.969 451.911 239.959C444.016 240.489 443.482 231.096 443.482 231.096L442.789 178.201Z" fill="#2249B3" stroke="#293449" stroke-width="1"></path>
<path d="M443.254 213.653L443.002 194.433L445.517 193.059C452.856 191.741 467.097 191.231 465.353 199.728C463.763 207.481 451.045 211.985 443.254 213.653Z" fill="black" fill-opacity="0.47" stroke="#293449" stroke-width="1"></path>
<path fill-rule="evenodd" clip-rule="evenodd" d="M448.681 203.178C467.915 203.108 483.45 187.416 483.38 168.129C483.31 148.842 467.661 133.263 448.428 133.333C429.194 133.403 413.659 149.095 413.729 168.382C413.741 171.889 414.283 175.286 415.276 178.497V197.536C415.276 200.59 417.751 203.065 420.805 203.065C430.098 203.055 439.393 203.211 448.681 203.178Z" fill="#2249B3" stroke="#293449" stroke-width="1"></path>
<path fill-rule="evenodd" clip-rule="evenodd" d="M448.681 203.178C467.915 203.108 483.45 187.416 483.38 168.129C483.31 148.842 467.661 133.263 448.428 133.333C429.194 133.403 413.659 149.095 413.729 168.382C413.741 171.889 414.283 175.286 415.276 178.497V197.536C415.276 200.59 417.751 203.065 420.805 203.065C430.098 203.055 439.393 203.211 448.681 203.178Z" fill="white" fill-opacity="0.35" stroke="#293449" stroke-width="1"></path>
<path d="M476.926 188.514C481.014 182.768 483.408 175.727 483.381 168.129C483.35 159.646 480.306 151.881 475.268 145.849L449.819 144.773L443.484 155.525L451.11 165.692C451.11 165.692 462.973 156.262 471.807 159.701C479.756 162.794 477.464 184.249 476.926 188.514Z" fill="#B0C1E1" stroke="#293449" stroke-width="1"></path>
<path d="M438.582 65.4546L439.887 71.3686L441.287 65.3803C463.559 64.8833 487.566 67.0992 487.566 67.0992C487.566 67.0992 489.01 142.888 476.151 146.188C466.265 148.724 450.058 144.737 450.058 144.737C450.058 144.737 438.559 156.772 418.932 149.291L406.811 71.3577C409.662 69.3126 414.527 67.9082 420.5 66.9714L422.84 77.5757L425.471 66.3212C429.571 65.8789 434.017 65.6046 438.582 65.4546Z" fill="#2249B3" stroke="#293449" stroke-width="1"></path>
<path fill-rule="evenodd" clip-rule="evenodd" d="M464.721 168.562C464.272 169.736 462.962 170.335 461.778 169.901C460.583 169.464 459.969 168.14 460.407 166.946C460.884 165.642 461.952 164.721 462.984 164.169C464.06 163.593 465.379 163.256 466.741 163.328C468.13 163.402 469.587 163.907 470.804 165.035C472.014 166.158 472.831 167.752 473.217 169.746C473.674 172.107 473.505 174.14 472.691 175.779C471.861 177.45 470.49 178.447 469.075 178.927C467.706 179.392 466.266 179.388 465.079 179.085C464.483 178.933 463.865 178.684 463.322 178.301C462.798 177.932 462.174 177.312 461.92 176.38C461.585 175.152 462.309 173.886 463.536 173.551C464.557 173.273 465.605 173.726 466.121 174.593C466.149 174.602 466.182 174.611 466.219 174.621C466.604 174.719 467.13 174.721 467.595 174.564C468.014 174.421 468.346 174.168 468.564 173.729C468.799 173.258 469.022 172.322 468.693 170.621C468.45 169.366 468.013 168.731 467.671 168.414C467.334 168.101 466.937 167.953 466.496 167.93C466.028 167.905 465.541 168.026 465.159 168.231C464.82 168.413 464.725 168.566 464.721 168.563C464.721 168.563 464.721 168.563 464.721 168.562Z" fill="#2249B3" stroke="#293449" stroke-width="1"></path>
<ellipse cx="405.197" cy="165.459" rx="10.0796" ry="18.558" fill="#FFF170"></ellipse>
<path d="M408.043 179.406C408.601 178.506 414.783 168.3 417.803 163.31C418.178 170.018 418.466 183.506 416.615 183.793C414.302 184.152 407.346 180.53 408.043 179.406Z" fill="#2249B3" stroke="#293449" stroke-width="1"></path>
<ellipse cx="428.201" cy="165.46" rx="10.0796" ry="18.558" fill="#FFF170"></ellipse>
<ellipse cx="677.871" cy="547.884" rx="31.1738" ry="1.88282" fill="#002B6C" fill-opacity="0.1"></ellipse>
<rect x="704.686" y="422.696" width="5.53649" height="15.7292" rx="1.19384" fill="#B0C1E1" stroke="#293449" stroke-width="1"></rect>
<rect x="645.33" y="442.109" width="5.53649" height="15.7292" rx="1.19384" fill="#B0C1E1" stroke="#293449" stroke-width="1"></rect>
<rect x="645.33" y="422.696" width="5.53649" height="15.7292" rx="1.19384" fill="#B0C1E1" stroke="#293449" stroke-width="1"></rect>
<rect x="709.045" y="392.246" width="129.934" height="62.3639" rx="9.5507" transform="rotate(90 709.045 392.246)" fill="#2249B3" stroke="#293449" stroke-width="1"></rect>
<rect x="706.352" y="394.65" width="125.125" height="56.9757" rx="9.0507" transform="rotate(90 706.352 394.65)" stroke="#293449" stroke-width="1"></rect>
<circle cx="677.865" cy="508.574" r="4.57369" fill="#FF7373" stroke="#293449" stroke-width="1"></circle>
<path d="M667.318 394.15H688.408V397.778C688.408 398.657 687.696 399.37 686.817 399.37H668.91C668.031 399.37 667.318 398.657 667.318 397.778V394.15Z" fill="#FF7373" stroke="#293449" stroke-width="1"></path>
<path fill-rule="evenodd" clip-rule="evenodd" d="M307.753 280.965H126.089C112.449 280.965 101.391 292.023 101.391 305.664C101.391 319.304 112.449 330.362 126.089 330.362H307.753C321.394 330.362 332.452 319.304 332.452 305.664C332.452 292.023 321.394 280.965 307.753 280.965ZM126.089 279.965C111.896 279.965 100.391 291.471 100.391 305.664C100.391 319.857 111.896 331.362 126.089 331.362H307.753C321.947 331.362 333.452 319.857 333.452 305.664C333.452 291.471 321.947 279.965 307.753 279.965H126.089Z" fill="#2249B3" stroke="#293449" stroke-width="1"></path>
<path fill-rule="evenodd" clip-rule="evenodd" d="M216.288 292.977C215.735 292.977 215.288 293.424 215.288 293.977V296.145C213.877 296.431 212.563 296.987 211.403 297.755L209.869 296.221C209.479 295.831 208.846 295.831 208.455 296.221L206.743 297.933C206.353 298.324 206.353 298.957 206.743 299.347L208.277 300.881C207.508 302.041 206.953 303.355 206.667 304.766H204.498C203.946 304.766 203.498 305.214 203.498 305.766V308.187C203.498 308.74 203.946 309.187 204.498 309.187H206.667C206.953 310.598 207.509 311.912 208.277 313.072L206.743 314.606C206.352 314.996 206.352 315.63 206.743 316.02L208.455 317.732C208.845 318.123 209.478 318.123 209.869 317.732L211.403 316.198C212.563 316.966 213.877 317.521 215.288 317.808V319.977C215.288 320.529 215.735 320.977 216.288 320.977H218.709C219.261 320.977 219.709 320.529 219.709 319.977V317.808C221.12 317.522 222.433 316.966 223.594 316.198L225.128 317.732C225.518 318.123 226.152 318.123 226.542 317.732L228.254 316.02C228.645 315.63 228.645 314.997 228.254 314.606L226.72 313.072C227.488 311.912 228.043 310.598 228.33 309.187H230.498C231.05 309.187 231.498 308.74 231.498 308.187V305.766C231.498 305.214 231.05 304.766 230.498 304.766H228.33C228.044 303.355 227.488 302.041 226.72 300.881L228.254 299.347C228.644 298.957 228.644 298.324 228.254 297.933L226.542 296.221C226.151 295.831 225.518 295.831 225.128 296.221L223.594 297.755C222.434 296.987 221.12 296.431 219.709 296.145V293.977C219.709 293.424 219.261 292.977 218.709 292.977H216.288ZM217.498 314.926C221.888 314.926 225.448 311.367 225.448 306.977C225.448 302.586 221.888 299.027 217.498 299.027C213.108 299.027 209.548 302.586 209.548 306.977C209.548 311.367 213.108 314.926 217.498 314.926Z" fill="#2249B3" stroke="#293449" stroke-width="1"></path>
<path fill-rule="evenodd" clip-rule="evenodd" d="M155.527 293.649L169.498 307.304L167.402 309.352L155.61 297.761L143.594 309.505L141.498 307.456L153.521 295.706L153.512 295.698L155.527 293.649ZM155.604 300.758L146.425 309.728V320.304H152.796V313.59H158.257V320.304H164.628V309.629L155.604 300.758ZM149.599 293.649H145.647V300.588L149.599 296.726V293.649Z" fill="#2249B3" stroke="#293449" stroke-width="1"></path>
<path d="M279.687 294.384L282.562 302.896L291.545 303C292.318 303.009 292.638 303.994 292.018 304.455L284.811 309.819L287.488 318.395C287.718 319.133 286.881 319.741 286.25 319.294L278.922 314.097L271.593 319.293C270.963 319.74 270.125 319.131 270.355 318.394L273.032 309.818L265.825 304.454C265.205 303.993 265.525 303.008 266.298 302.999L275.281 302.895L278.156 294.383C278.404 293.651 279.44 293.651 279.687 294.384Z" fill="#2249B3" stroke="#293449" stroke-width="1"></path>
<rect x="97.2207" y="53.6465" width="239.402" height="210.318" rx="26.7248" fill="#B0C1E1" stroke="#293449" stroke-width="1"></rect>
<rect x="97.2207" y="196.692" width="239.367" height="20.2573" fill="#FF7373" stroke="#293449" stroke-width="1"></rect>
<path d="M97.8379 125.548V196.948H211.471L97.8379 125.548Z" fill="#2249B3" stroke="#293449" stroke-width="1"></path>
<path d="M214.436 67.7437L155.34 196.948H268.973L214.436 67.7437Z" fill="#2249B3" stroke="#293449" stroke-width="1"></path>
<path d="M155.149 98.3745L113.439 196.948H227.072L155.149 98.3745Z" fill="#2249B3" stroke="#293449" stroke-width="1"></path>
<path d="M271.252 67.7437L212.156 196.948H325.789L271.252 67.7437Z" fill="#2249B3" stroke="#293449" stroke-width="1"></path>
<path d="M336.588 107.268L222.955 196.948H336.588V107.268Z" fill="#2249B3" stroke="#293449" stroke-width="1"></path>
<ellipse cx="216.923" cy="239.496" rx="80.9929" ry="2.17764" fill="#002B6C" fill-opacity="0.3"></ellipse>
<path d="M153.659 224.991C148.149 224.991 143.666 220.508 143.666 214.998V122.862C143.666 117.352 148.149 112.869 153.659 112.869H195.276C200.786 112.869 205.269 117.352 205.269 122.862V214.998C205.269 220.508 200.786 224.991 195.276 224.991H153.659Z" fill="#F2F2F2" stroke="#293449" stroke-width="1"></path>
<path d="M195.276 222.356H153.659C149.672 222.356 146.44 219.124 146.44 215.138V123.002C146.44 119.015 149.672 115.784 153.659 115.784H195.276C199.262 115.784 202.494 119.015 202.494 123.002V215.138C202.494 219.124 199.262 222.356 195.276 222.356Z" fill="#E6E6E6" stroke="#293449" stroke-width="1"></path>
<path d="M196.11 222.356H152.824C150.038 222.356 147.78 220.098 147.78 217.312V120.827C147.78 118.042 150.038 115.784 152.824 115.784H196.11C198.895 115.784 201.153 118.042 201.153 120.827V217.312C201.153 220.098 198.895 222.356 196.11 222.356Z" fill="white" stroke="#293449" stroke-width="1"></path>
<path d="M180.417 219.016H168.518C168.119 219.016 167.796 218.693 167.796 218.295C167.796 217.896 168.119 217.573 168.518 217.573H180.417C180.816 217.573 181.139 217.896 181.139 218.295C181.139 218.693 180.816 219.016 180.417 219.016Z" fill="#E6E6E6" stroke="#293449" stroke-width="1"></path>
<path d="M188.254 123.698H160.68C158.799 123.698 157.274 122.173 157.274 120.293V115.784H191.66V120.293C191.66 122.173 190.135 123.698 188.254 123.698Z" fill="#F2F2F2" stroke="#293449" stroke-width="1"></path>
<path d="M182.52 120.239C182.983 120.239 183.357 119.865 183.357 119.403C183.357 118.94 182.983 118.566 182.52 118.566C182.058 118.566 181.684 118.94 181.684 119.403C181.684 119.865 182.058 120.239 182.52 120.239Z" fill="#2249B3" stroke="#293449" stroke-width="1"></path>
<path d="M187.409 120.239C187.871 120.239 188.246 119.865 188.246 119.403C188.246 118.94 187.871 118.566 187.409 118.566C186.947 118.566 186.572 118.94 186.572 119.403C186.572 119.865 186.947 120.239 187.409 120.239Z" fill="#2249B3" stroke="#293449" stroke-width="1"></path>
<path d="M194.145 131.869H154.789C153.259 131.869 152.02 130.63 152.02 129.1V128.687C152.02 127.158 153.259 125.918 154.789 125.918H194.145C195.674 125.918 196.914 127.158 196.914 128.687V129.1C196.914 130.63 195.674 131.869 194.145 131.869Z" fill="#FF7373" stroke="#293449" stroke-width="1"></path>
<path d="M160.746 206.072H153.685V213.133H160.746V206.072Z" fill="#B0C1E1" stroke="#293449" stroke-width="1"></path>
<path d="M172.247 206.072H165.186V213.133H172.247V206.072Z" fill="#B0C1E1" stroke="#293449" stroke-width="1"></path>
<path d="M183.748 206.072H176.687V213.133H183.748V206.072Z" fill="#B0C1E1" stroke="#293449" stroke-width="1"></path>
<path d="M195.25 206.072H188.188V213.133H195.25V206.072Z" fill="#B0C1E1" stroke="#293449" stroke-width="1"></path>
<path d="M156.873 171.876H154.228C153.008 171.876 152.02 170.887 152.02 169.667V167.022C152.02 165.803 153.008 164.814 154.228 164.814H156.873C158.092 164.814 159.081 165.803 159.081 167.022V169.667C159.081 170.887 158.092 171.876 156.873 171.876Z" fill="#FF7373" stroke="#293449" stroke-width="1"></path>
<path d="M194.706 171.876H192.061C190.841 171.876 189.853 170.887 189.853 169.667V167.022C189.853 165.803 190.841 164.814 192.061 164.814H194.706C195.925 164.814 196.914 165.803 196.914 167.022V169.667C196.914 170.887 195.925 171.876 194.706 171.876Z" fill="#FF7373" stroke="#293449" stroke-width="1"></path>
<path d="M185.424 171.876H182.779C181.56 171.876 180.571 170.887 180.571 169.667V167.022C180.571 165.803 181.56 164.814 182.779 164.814H185.424C186.644 164.814 187.633 165.803 187.633 167.022V169.667C187.633 170.887 186.644 171.876 185.424 171.876Z" fill="#FF7373" stroke="#293449" stroke-width="1"></path>
<path d="M156.873 203.151H154.228C153.008 203.151 152.02 202.163 152.02 200.943V198.298C152.02 197.079 153.008 196.09 154.228 196.09H156.873C158.092 196.09 159.081 197.079 159.081 198.298V200.943C159.081 202.163 158.092 203.151 156.873 203.151Z" fill="#FF7373" stroke="#293449" stroke-width="1"></path>
<path d="M194.706 203.151H192.061C190.841 203.151 189.853 202.162 189.853 200.943V198.298C189.853 197.078 190.841 196.09 192.061 196.09H194.706C195.925 196.09 196.914 197.078 196.914 198.298V200.943C196.914 202.162 195.925 203.151 194.706 203.151Z" fill="#FF7373" stroke="#293449" stroke-width="1"></path>
<path d="M185.424 203.151H182.779C181.56 203.151 180.571 202.162 180.571 200.943V198.298C180.571 197.078 181.56 196.09 182.779 196.09H185.424C186.644 196.09 187.633 197.078 187.633 198.298V200.943C187.633 202.162 186.644 203.151 185.424 203.151Z" fill="#FF7373" stroke="#293449" stroke-width="1"></path>
<path d="M196.914 193.169H152.02V177.856C152.02 176.17 153.386 174.804 155.072 174.804H193.862C195.547 174.804 196.914 176.17 196.914 177.856V193.169Z" fill="#2249B3" stroke="#293449" stroke-width="1"></path>
<path d="M193.863 162.594H155.073C153.387 162.594 152.021 161.227 152.021 159.542V139.361C152.021 137.676 153.387 136.309 155.073 136.309H193.863C195.548 136.309 196.915 137.676 196.915 139.361V159.542C196.915 161.227 195.548 162.594 193.863 162.594Z" fill="#2249B3" stroke="#293449" stroke-width="1"></path>
<path d="M238.569 224.991C233.059 224.991 228.576 219.608 228.576 212.991V102.347C228.576 95.73 233.059 90.3467 238.569 90.3467H280.186C285.696 90.3467 290.179 95.73 290.179 102.347V212.991C290.179 219.608 285.696 224.991 280.186 224.991H238.569Z" fill="#F2F2F2" stroke="#293449" stroke-width="1"></path>
<path d="M280.187 221.827H238.57C234.583 221.827 231.352 217.946 231.352 213.159V102.515C231.352 97.7276 234.583 93.8468 238.57 93.8468H280.187C284.173 93.8468 287.405 97.7276 287.405 102.515V213.159C287.405 217.946 284.173 221.827 280.187 221.827Z" fill="#E6E6E6" stroke="#293449" stroke-width="1"></path>
<path d="M281.021 221.827H237.735C234.949 221.827 232.691 219.115 232.691 215.77V99.9035C232.691 96.5585 234.949 93.8468 237.735 93.8468H281.021C283.806 93.8468 286.064 96.5585 286.064 99.9035V215.77C286.064 219.115 283.806 221.827 281.021 221.827Z" fill="white" stroke="#293449" stroke-width="1"></path>
<path d="M265.328 217.816H253.428C253.029 217.816 252.706 217.428 252.706 216.949C252.706 216.471 253.029 216.083 253.428 216.083H265.328C265.726 216.083 266.049 216.471 266.049 216.949C266.049 217.428 265.726 217.816 265.328 217.816Z" fill="#E6E6E6" stroke="#293449" stroke-width="1"></path>
<path d="M273.166 103.351H245.591C243.71 103.351 242.186 101.52 242.186 99.2613V93.8468H276.571V99.2613C276.571 101.52 275.046 103.351 273.166 103.351Z" fill="#F2F2F2" stroke="#293449" stroke-width="1"></path>
<path d="M267.432 99.1975C267.894 99.1975 268.269 98.7476 268.269 98.1925C268.269 97.6375 267.894 97.1875 267.432 97.1875C266.969 97.1875 266.595 97.6375 266.595 98.1925C266.595 98.7476 266.969 99.1975 267.432 99.1975Z" fill="#2249B3" stroke="#293449" stroke-width="1"></path>
<path d="M272.319 99.1975C272.782 99.1975 273.156 98.7476 273.156 98.1925C273.156 97.6375 272.782 97.1875 272.319 97.1875C271.857 97.1875 271.482 97.6375 271.482 98.1925C271.482 98.7476 271.857 99.1975 272.319 99.1975Z" fill="#2249B3" stroke="#293449" stroke-width="1"></path>
<rect x="253.315" y="109.013" width="30.1689" height="16.9055" rx="7.37235" fill="#2249B3" stroke="#293449" stroke-width="1"></rect>
<rect x="253.315" y="144.959" width="30.1689" height="16.9055" rx="7.37235" fill="#2249B3" stroke="#293449" stroke-width="1"></rect>
<rect x="235.881" y="130.81" width="30.1689" height="9.25712" rx="4.62856" fill="#FF7373" stroke="#293449" stroke-width="1"></rect>
<rect x="235.881" y="166.758" width="30.1689" height="16.9055" rx="7.37235" fill="#FF7373" stroke="#293449" stroke-width="1"></rect>
<rect x="253.315" y="190.363" width="30.1689" height="9.25712" rx="4.62856" fill="#2249B3" stroke="#293449" stroke-width="1"></rect>
<circle cx="127.146" cy="82.1719" r="15.0156" fill="#2249B3" stroke="#293449" stroke-width="1"></circle>
<path d="M261.805 492.089C261.929 490.357 264.328 489.464 264.844 490.186V492.637L272.576 496.967L288.813 500.369L339.691 498.359C343.403 494.132 353.113 492.089 353.113 492.089C354.257 492.387 354.608 504.648 348.728 506.412C334.241 510.758 289.926 508.638 275.669 507.792C257.421 506.71 261.65 494.254 261.805 492.089Z" fill="#3F3F3F" stroke="#293449" stroke-width="1"></path>
<path d="M262.208 491.554C262.208 484.682 291.354 479.112 298.226 479.112H340.435C347.307 479.112 352.878 484.682 352.878 491.554C352.878 498.426 347.307 503.997 340.435 503.997H274.651C267.779 503.997 262.208 498.426 262.208 491.554Z" fill="#FF7373" stroke="#293449" stroke-width="1"></path>
<path d="M290.769 451.886C287.74 453.78 309.491 475.484 292.134 479.677L316.712 483.29C317.343 477.136 318.226 458.346 316.712 454.812C314.818 450.394 294.556 449.52 290.769 451.886Z" fill="#FF7373" stroke="#293449" stroke-width="1"></path>
<path d="M329.39 478.457C318.943 479.667 316.29 471.687 313.26 470.589L311.966 492.356C324.787 495.561 352.94 492.356 352.94 492.356C353.513 480.711 352.366 471.345 349.415 466.731C349.415 466.731 339.838 477.248 329.39 478.457Z" fill="#FF7373" stroke="#293449" stroke-width="1"></path>
<path fill-rule="evenodd" clip-rule="evenodd" d="M277.212 461.34C275.125 460.466 273.698 460.593 272.703 461.444C272.178 461.892 272.043 462.287 272.042 462.653C272.041 463.088 272.233 463.704 272.787 464.52C273.904 466.161 276.121 468.077 279.044 470.078C283.738 473.292 289.886 476.485 295.042 478.863C292.209 474.851 288.21 469.96 284.178 466.248C281.699 463.966 279.297 462.212 277.212 461.34ZM299.186 478.771C302.144 476.187 305.513 472.938 307.733 469.815C309.139 467.837 309.955 466.086 310.067 464.696C310.12 464.032 310.011 463.482 309.754 463.012C309.496 462.539 309.037 462.049 308.235 461.597C306.351 460.535 305.021 460.616 304.022 461.148C302.92 461.735 301.894 463.041 301.06 465.065C299.58 468.657 298.971 473.863 299.186 478.771ZM296.387 475.999C296.464 471.698 297.133 467.337 298.503 464.012C299.442 461.733 300.796 459.734 302.723 458.708C304.753 457.626 307.103 457.786 309.592 459.189C310.752 459.843 311.629 460.675 312.182 461.689C312.736 462.707 312.911 463.81 312.822 464.917C312.65 467.066 311.477 469.32 309.986 471.416C306.977 475.649 302.144 479.957 298.805 482.723L298.155 483.262L297.379 482.929C291.68 480.487 283.488 476.471 277.482 472.359C274.506 470.321 271.924 468.166 270.501 466.075C269.786 465.024 269.274 463.859 269.277 462.644C269.281 461.359 269.862 460.235 270.907 459.342C273.052 457.509 275.757 457.734 278.279 458.789C280.803 459.846 283.485 461.853 286.05 464.214C289.831 467.695 293.548 472.127 296.387 475.999Z" fill="#B0C1E1" stroke="#293449" stroke-width="1"></path>
<path d="M312.251 512.555C294.963 512.846 270.406 510.329 260.289 509.034H355.592C348.349 510.086 329.539 512.263 312.251 512.555Z" fill="black" fill-opacity="0.38" stroke="#293449" stroke-width="1"></path>
<path d="M463.101 492.088C463.224 490.356 465.624 489.463 466.14 490.185L466.14 492.636L473.872 496.966L490.109 500.369L540.987 498.358C544.699 494.131 554.409 492.088 554.409 492.088C555.553 492.386 555.903 504.648 550.024 506.411C535.537 510.758 491.222 508.637 476.964 507.791C458.716 506.709 462.946 494.253 463.101 492.088Z" fill="#3F3F3F" stroke="#293449" stroke-width="1"></path>
<path d="M463.504 491.554C463.504 484.682 492.65 479.111 499.522 479.111L541.731 479.111C548.603 479.111 554.174 484.682 554.174 491.554C554.174 498.426 553.199 502.18 548.214 503.068C522.636 507.623 475.947 503.996 475.947 503.996C469.075 503.996 463.504 498.426 463.504 491.554Z" fill="#FF7373" stroke="#293449" stroke-width="1"></path>
<path d="M530.686 478.457C520.238 479.667 517.586 471.686 514.556 470.589L513.262 492.355C526.083 495.561 554.236 492.355 554.236 492.355C554.809 480.711 553.662 471.344 550.711 466.731C550.711 466.731 541.134 477.247 530.686 478.457Z" fill="#FF7373" stroke="#293449" stroke-width="1"></path>
<path d="M485.705 462.35C483.699 465.306 512.365 476.371 498.182 487.22L522.124 480.594C520.215 474.71 513.431 457.165 510.618 454.544C507.101 451.268 488.213 458.655 485.705 462.35Z" fill="#FF7373" stroke="#293449" stroke-width="1"></path>
<path fill-rule="evenodd" clip-rule="evenodd" d="M482.124 470.273C479.189 470.242 476.73 470.869 475.117 472.247C474.926 472.411 474.779 472.551 474.669 472.669C475.094 472.82 475.742 472.963 476.644 473.092C477.671 473.239 478.913 473.352 480.329 473.464C480.862 473.507 481.419 473.548 481.997 473.592C486.884 473.958 493.189 474.43 498.305 476.193C498.146 475.993 497.925 475.759 497.627 475.495C496.281 474.302 493.908 473 491.052 471.986C488.215 470.979 485.032 470.303 482.124 470.273ZM474.254 472.475C474.254 472.475 474.262 472.48 474.273 472.49C474.258 472.48 474.253 472.475 474.254 472.475ZM501.302 477.748C501.115 478.322 500.754 478.794 500.304 479.167L499.654 479.706L498.877 479.373C493.977 477.273 487.28 476.766 481.758 476.347C481.195 476.304 480.645 476.263 480.11 476.22C478.691 476.108 477.373 475.989 476.253 475.829C475.16 475.673 474.135 475.463 473.36 475.123C472.648 474.81 471.568 474.106 471.655 472.747C471.692 472.177 471.941 471.688 472.219 471.3C472.502 470.905 472.881 470.522 473.321 470.146C475.657 468.15 478.9 467.474 482.153 467.508C485.433 467.542 488.923 468.296 491.977 469.381C495.012 470.458 497.748 471.909 499.46 473.425C500.297 474.166 501.042 475.055 501.321 476.06C501.469 476.591 501.489 477.17 501.302 477.748Z" fill="#B0C1E1" stroke="#293449" stroke-width="1"></path>
<path fill-rule="evenodd" clip-rule="evenodd" d="M487.559 492.993C484.934 494.306 482.448 494.819 480.395 494.286C480.151 494.223 479.958 494.16 479.807 494.103C480.123 493.781 480.643 493.368 481.397 492.858C482.257 492.277 483.324 491.63 484.547 490.91C485.008 490.638 485.491 490.357 485.991 490.065C490.225 487.596 495.687 484.41 499.514 480.586C499.459 480.836 499.363 481.143 499.211 481.511C498.522 483.172 496.959 485.382 494.836 487.544C492.726 489.692 490.16 491.693 487.559 492.993ZM479.519 494.459C479.52 494.459 479.524 494.451 479.53 494.437C479.521 494.453 479.518 494.46 479.519 494.459ZM501.528 477.876C501.108 477.441 500.578 477.175 500.009 477.037L499.189 476.837L498.637 477.476C495.151 481.51 489.352 484.898 484.57 487.693C484.083 487.977 483.607 488.255 483.145 488.528C481.917 489.25 480.785 489.934 479.848 490.568C478.934 491.187 478.103 491.825 477.556 492.47C477.053 493.063 476.391 494.169 477.064 495.353C477.346 495.848 477.784 496.179 478.204 496.406C478.631 496.638 479.14 496.816 479.7 496.962C482.674 497.734 485.885 496.921 488.795 495.466C491.729 494 494.537 491.793 496.808 489.481C499.065 487.183 500.889 484.682 501.765 482.569C502.193 481.536 502.473 480.41 502.284 479.385C502.185 478.843 501.95 478.313 501.528 477.876Z" fill="#B0C1E1" stroke="#293449" stroke-width="1"></path>
<path d="M511.742 512.555C493.495 512.846 467.577 510.329 456.898 509.034H557.487C549.842 510.086 529.989 512.263 511.742 512.555Z" fill="black" fill-opacity="0.38" stroke="#293449" stroke-width="1"></path>
<path fill-rule="evenodd" clip-rule="evenodd" d="M114.756 513.497C110.655 509.396 104.007 509.396 99.9066 513.497L97.8082 515.595C93.3171 520.086 86.0357 520.086 81.5447 515.595L79.4974 513.548C75.3779 509.428 68.6921 509.45 64.5997 513.596L59.6908 518.57C59.4968 518.767 59.1803 518.769 58.9837 518.575C58.7872 518.381 58.7851 518.064 58.9791 517.868L63.8879 512.894C68.3701 508.353 75.6927 508.329 80.2045 512.841L82.2518 514.888C86.3523 518.988 93.0005 518.988 97.101 514.888L99.1995 512.789C103.691 508.298 110.972 508.298 115.463 512.789L117.561 514.888C121.662 518.988 128.31 518.988 132.411 514.888L132.864 514.435C133.242 514.056 133.592 513.649 133.908 513.217L135.938 510.446C136.102 510.224 136.414 510.175 136.637 510.339C136.86 510.502 136.908 510.815 136.745 511.038L134.715 513.808C134.368 514.281 133.986 514.727 133.571 515.142L133.118 515.595C128.627 520.086 121.345 520.086 116.854 515.595L114.756 513.497Z" fill="#3F3F3F" stroke="#293449" stroke-width="1"></path>
<path fill-rule="evenodd" clip-rule="evenodd" d="M358.743 93.1508C354.643 89.0503 347.994 89.0503 343.894 93.1508L341.795 95.2493C337.304 99.7403 330.023 99.7403 325.532 95.2493L323.485 93.2019C319.365 89.0824 312.679 89.1043 308.587 93.2508L303.678 98.2244C303.484 98.4209 303.168 98.423 302.971 98.229C302.774 98.035 302.772 97.7184 302.966 97.5219L307.875 92.5483C312.357 88.007 319.68 87.983 324.192 92.4948L326.239 94.5421C330.34 98.6427 336.988 98.6427 341.088 94.5421L343.187 92.4437C347.678 87.9527 354.959 87.9527 359.45 92.4437L361.549 94.5421C365.649 98.6426 372.297 98.6426 376.398 94.5421L376.851 94.0892C377.23 93.7103 377.579 93.303 377.896 92.8708L379.926 90.1007C380.089 89.878 380.402 89.8297 380.624 89.993C380.847 90.1562 380.895 90.4691 380.732 90.6918L378.702 93.4619C378.356 93.9352 377.973 94.3813 377.558 94.7963L377.105 95.2492C372.614 99.7403 365.333 99.7403 360.842 95.2492L358.743 93.1508Z" fill="#2249B3" stroke="#293449" stroke-width="1"></path>
</svg>